<mxfile host="app.diagrams.net" modified="2023-11-27T04:58:46.554Z" agent="Mozilla/5.0 (Macintosh; Intel Mac OS X 10_15_7) AppleWebKit/537.36 (KHTML, like Gecko) Chrome/119.0.0.0 Safari/537.36" etag="CJPZ08S30q44c2hn84yt" version="22.1.4" type="google">
  <diagram name="Page-1" id="NQAO91qm5MKnZNwVF8IW">
    <mxGraphModel grid="1" page="1" gridSize="10" guides="1" tooltips="1" connect="1" arrows="1" fold="1" pageScale="1" pageWidth="850" pageHeight="1100" math="0" shadow="0">
      <root>
        <mxCell id="0" />
        <mxCell id="1" parent="0" />
        <mxCell id="5HEONxTwKiplG4HzLLUq-2" value="NewUser" style="shape=umlActor;html=1;verticalLabelPosition=bottom;verticalAlign=top;align=center;" vertex="1" parent="1">
          <mxGeometry x="60" y="270" width="30" height="60" as="geometry" />
        </mxCell>
        <mxCell id="5HEONxTwKiplG4HzLLUq-4" value="Register" style="ellipse;whiteSpace=wrap;html=1;" vertex="1" parent="1">
          <mxGeometry x="360" y="280" width="140" height="70" as="geometry" />
        </mxCell>
        <mxCell id="5HEONxTwKiplG4HzLLUq-6" value="ExistingUser" style="shape=umlActor;html=1;verticalLabelPosition=bottom;verticalAlign=top;align=center;" vertex="1" parent="1">
          <mxGeometry x="60" y="440" width="30" height="60" as="geometry" />
        </mxCell>
        <mxCell id="5HEONxTwKiplG4HzLLUq-11" value="Login" style="ellipse;whiteSpace=wrap;html=1;" vertex="1" parent="1">
          <mxGeometry x="360" y="440" width="140" height="70" as="geometry" />
        </mxCell>
        <mxCell id="5HEONxTwKiplG4HzLLUq-12" value="Create Group/Family" style="ellipse;whiteSpace=wrap;html=1;" vertex="1" parent="1">
          <mxGeometry x="420" y="780" width="140" height="70" as="geometry" />
        </mxCell>
        <mxCell id="5HEONxTwKiplG4HzLLUq-13" value="Create Trip" style="ellipse;whiteSpace=wrap;html=1;" vertex="1" parent="1">
          <mxGeometry x="410" y="1090" width="140" height="70" as="geometry" />
        </mxCell>
        <mxCell id="5HEONxTwKiplG4HzLLUq-14" value="Add Friend" style="ellipse;whiteSpace=wrap;html=1;" vertex="1" parent="1">
          <mxGeometry x="360" y="690" width="140" height="70" as="geometry" />
        </mxCell>
        <mxCell id="5HEONxTwKiplG4HzLLUq-15" value="Invite Friend" style="ellipse;whiteSpace=wrap;html=1;" vertex="1" parent="1">
          <mxGeometry x="360" y="530" width="140" height="70" as="geometry" />
        </mxCell>
        <mxCell id="5HEONxTwKiplG4HzLLUq-16" value="Search Member for Add Friend" style="ellipse;whiteSpace=wrap;html=1;" vertex="1" parent="1">
          <mxGeometry x="360" y="610" width="140" height="70" as="geometry" />
        </mxCell>
        <mxCell id="5HEONxTwKiplG4HzLLUq-17" value="Invite to Group" style="ellipse;whiteSpace=wrap;html=1;" vertex="1" parent="1">
          <mxGeometry x="510" y="850" width="140" height="70" as="geometry" />
        </mxCell>
        <mxCell id="5HEONxTwKiplG4HzLLUq-18" value="Join Group" style="ellipse;whiteSpace=wrap;html=1;" vertex="1" parent="1">
          <mxGeometry x="520" y="920" width="140" height="70" as="geometry" />
        </mxCell>
        <mxCell id="5HEONxTwKiplG4HzLLUq-19" value="Approve Join Group" style="ellipse;whiteSpace=wrap;html=1;" vertex="1" parent="1">
          <mxGeometry x="530" y="1000" width="140" height="70" as="geometry" />
        </mxCell>
        <mxCell id="5HEONxTwKiplG4HzLLUq-20" value="Join Trip" style="ellipse;whiteSpace=wrap;html=1;" vertex="1" parent="1">
          <mxGeometry x="530" y="1270" width="140" height="70" as="geometry" />
        </mxCell>
        <mxCell id="5HEONxTwKiplG4HzLLUq-21" value="Invite Trip" style="ellipse;whiteSpace=wrap;html=1;" vertex="1" parent="1">
          <mxGeometry x="530" y="1160" width="140" height="70" as="geometry" />
        </mxCell>
        <mxCell id="5HEONxTwKiplG4HzLLUq-22" value="Approve Join Trip" style="ellipse;whiteSpace=wrap;html=1;" vertex="1" parent="1">
          <mxGeometry x="530" y="1370" width="140" height="70" as="geometry" />
        </mxCell>
        <mxCell id="5HEONxTwKiplG4HzLLUq-23" value="Location Sharing" style="ellipse;whiteSpace=wrap;html=1;" vertex="1" parent="1">
          <mxGeometry x="360" y="1480" width="140" height="70" as="geometry" />
        </mxCell>
        <mxCell id="5HEONxTwKiplG4HzLLUq-24" value="Location Share Setting&lt;br&gt;Trun ON/Off" style="ellipse;whiteSpace=wrap;html=1;" vertex="1" parent="1">
          <mxGeometry x="510" y="1550" width="140" height="70" as="geometry" />
        </mxCell>
        <mxCell id="5HEONxTwKiplG4HzLLUq-25" value="View Trip&#39;s Member Position On Map" style="ellipse;whiteSpace=wrap;html=1;" vertex="1" parent="1">
          <mxGeometry x="360" y="1680" width="140" height="70" as="geometry" />
        </mxCell>
        <mxCell id="5HEONxTwKiplG4HzLLUq-26" value="Share destination" style="ellipse;whiteSpace=wrap;html=1;" vertex="1" parent="1">
          <mxGeometry x="360" y="1800" width="140" height="70" as="geometry" />
        </mxCell>
        <mxCell id="5HEONxTwKiplG4HzLLUq-27" value="View Estimate Driection/Time" style="ellipse;whiteSpace=wrap;html=1;" vertex="1" parent="1">
          <mxGeometry x="360" y="1920" width="140" height="70" as="geometry" />
        </mxCell>
        <mxCell id="5HEONxTwKiplG4HzLLUq-28" value="Post Action/Message on Trip" style="ellipse;whiteSpace=wrap;html=1;" vertex="1" parent="1">
          <mxGeometry x="360" y="2030" width="140" height="70" as="geometry" />
        </mxCell>
        <mxCell id="5HEONxTwKiplG4HzLLUq-29" value="Admin" style="shape=umlActor;html=1;verticalLabelPosition=bottom;verticalAlign=top;align=center;" vertex="1" parent="1">
          <mxGeometry x="1130" y="560" width="30" height="60" as="geometry" />
        </mxCell>
        <mxCell id="5HEONxTwKiplG4HzLLUq-30" value="Admin User/Management" style="ellipse;whiteSpace=wrap;html=1;" vertex="1" parent="1">
          <mxGeometry x="880" y="510" width="140" height="70" as="geometry" />
        </mxCell>
        <mxCell id="5HEONxTwKiplG4HzLLUq-31" value="Admin Group/Family Manegment" style="ellipse;whiteSpace=wrap;html=1;" vertex="1" parent="1">
          <mxGeometry x="880" y="640" width="140" height="70" as="geometry" />
        </mxCell>
        <mxCell id="5HEONxTwKiplG4HzLLUq-32" value="Admin Trip Management" style="ellipse;whiteSpace=wrap;html=1;" vertex="1" parent="1">
          <mxGeometry x="880" y="730" width="140" height="70" as="geometry" />
        </mxCell>
      </root>
    </mxGraphModel>
  </diagram>
</mxfile>
